<mxfile host="app.diagrams.net" modified="2022-04-16T13:33:02.972Z" agent="5.0 (Windows NT 10.0; Win64; x64) AppleWebKit/537.36 (KHTML, like Gecko) Chrome/99.0.4844.74 Safari/537.36" etag="Q8eIM0DPtV6WtoK5wUox" version="17.4.4" type="github">
  <diagram name="Page-1" id="e7e014a7-5840-1c2e-5031-d8a46d1fe8dd">
    <mxGraphModel dx="1022" dy="475" grid="1" gridSize="10" guides="1" tooltips="1" connect="1" arrows="1" fold="1" page="1" pageScale="1" pageWidth="1169" pageHeight="826" background="none" math="0" shadow="0">
      <root>
        <mxCell id="0" />
        <mxCell id="1" parent="0" />
        <mxCell id="2" value="Thread 1" style="swimlane;whiteSpace=wrap" parent="1" vertex="1">
          <mxGeometry x="130" y="90" width="280" height="1250" as="geometry" />
        </mxCell>
        <mxCell id="RryZNQVFSDZqY0ZnPt3S-58" value="" style="edgeStyle=orthogonalEdgeStyle;rounded=0;orthogonalLoop=1;jettySize=auto;html=1;" edge="1" parent="2" source="7">
          <mxGeometry relative="1" as="geometry">
            <mxPoint x="115" y="212" as="targetPoint" />
          </mxGeometry>
        </mxCell>
        <mxCell id="7" value="访问同步块" style="" parent="2" vertex="1">
          <mxGeometry x="60" y="82" width="110" height="50" as="geometry" />
        </mxCell>
        <mxCell id="RryZNQVFSDZqY0ZnPt3S-50" value="" style="edgeStyle=orthogonalEdgeStyle;rounded=0;orthogonalLoop=1;jettySize=auto;html=1;" edge="1" parent="2" source="RryZNQVFSDZqY0ZnPt3S-42" target="RryZNQVFSDZqY0ZnPt3S-49">
          <mxGeometry relative="1" as="geometry" />
        </mxCell>
        <mxCell id="RryZNQVFSDZqY0ZnPt3S-42" value="检查对象头中是否存储了线程1" style="html=1;whiteSpace=wrap;aspect=fixed;shape=isoRectangle;" vertex="1" parent="2">
          <mxGeometry x="40" y="195" width="150" height="90" as="geometry" />
        </mxCell>
        <mxCell id="RryZNQVFSDZqY0ZnPt3S-60" value="" style="edgeStyle=orthogonalEdgeStyle;rounded=0;orthogonalLoop=1;jettySize=auto;html=1;" edge="1" parent="2" source="RryZNQVFSDZqY0ZnPt3S-49" target="RryZNQVFSDZqY0ZnPt3S-59">
          <mxGeometry relative="1" as="geometry" />
        </mxCell>
        <mxCell id="RryZNQVFSDZqY0ZnPt3S-49" value="CAS替换 Mark Word" style="html=1;whiteSpace=wrap;aspect=fixed;shape=isoRectangle;fillColor=rgb(255, 255, 255);strokeColor=rgb(0, 0, 0);fontColor=rgb(0, 0, 0);" vertex="1" parent="2">
          <mxGeometry x="40" y="333" width="150" height="90" as="geometry" />
        </mxCell>
        <mxCell id="RryZNQVFSDZqY0ZnPt3S-51" value="没有" style="text;html=1;strokeColor=none;fillColor=none;align=center;verticalAlign=middle;whiteSpace=wrap;rounded=0;" vertex="1" parent="2">
          <mxGeometry x="86" y="303" width="60" height="30" as="geometry" />
        </mxCell>
        <mxCell id="RryZNQVFSDZqY0ZnPt3S-80" value="" style="edgeStyle=orthogonalEdgeStyle;rounded=0;orthogonalLoop=1;jettySize=auto;html=1;" edge="1" parent="2" source="RryZNQVFSDZqY0ZnPt3S-59" target="RryZNQVFSDZqY0ZnPt3S-79">
          <mxGeometry relative="1" as="geometry" />
        </mxCell>
        <mxCell id="RryZNQVFSDZqY0ZnPt3S-59" value="将对象头Mark Word中的线程ID指向自己" style="whiteSpace=wrap;html=1;fillColor=rgb(255, 255, 255);strokeColor=rgb(0, 0, 0);fontColor=rgb(0, 0, 0);" vertex="1" parent="2">
          <mxGeometry x="55.5" y="550" width="120" height="60" as="geometry" />
        </mxCell>
        <mxCell id="RryZNQVFSDZqY0ZnPt3S-61" value="成功" style="text;html=1;strokeColor=none;fillColor=none;align=center;verticalAlign=middle;whiteSpace=wrap;rounded=0;" vertex="1" parent="2">
          <mxGeometry x="90" y="482" width="60" height="30" as="geometry" />
        </mxCell>
        <mxCell id="RryZNQVFSDZqY0ZnPt3S-77" value="" style="endArrow=classic;html=1;rounded=0;" edge="1" parent="2">
          <mxGeometry width="50" height="50" relative="1" as="geometry">
            <mxPoint x="175.5" y="590" as="sourcePoint" />
            <mxPoint x="355.5" y="590" as="targetPoint" />
          </mxGeometry>
        </mxCell>
        <mxCell id="RryZNQVFSDZqY0ZnPt3S-99" value="" style="edgeStyle=orthogonalEdgeStyle;rounded=0;orthogonalLoop=1;jettySize=auto;html=1;" edge="1" parent="2" source="RryZNQVFSDZqY0ZnPt3S-79" target="RryZNQVFSDZqY0ZnPt3S-98">
          <mxGeometry relative="1" as="geometry" />
        </mxCell>
        <mxCell id="RryZNQVFSDZqY0ZnPt3S-79" value="执行同步体" style="whiteSpace=wrap;html=1;" vertex="1" parent="2">
          <mxGeometry x="55.5" y="750" width="120" height="60" as="geometry" />
        </mxCell>
        <mxCell id="RryZNQVFSDZqY0ZnPt3S-102" value="" style="edgeStyle=orthogonalEdgeStyle;rounded=0;orthogonalLoop=1;jettySize=auto;html=1;" edge="1" parent="2" source="RryZNQVFSDZqY0ZnPt3S-98" target="RryZNQVFSDZqY0ZnPt3S-101">
          <mxGeometry relative="1" as="geometry" />
        </mxCell>
        <mxCell id="RryZNQVFSDZqY0ZnPt3S-98" value="暂停线程" style="whiteSpace=wrap;html=1;" vertex="1" parent="2">
          <mxGeometry x="58.75" y="910" width="114.5" height="60" as="geometry" />
        </mxCell>
        <mxCell id="RryZNQVFSDZqY0ZnPt3S-106" value="" style="edgeStyle=orthogonalEdgeStyle;rounded=0;orthogonalLoop=1;jettySize=auto;html=1;" edge="1" parent="2" source="RryZNQVFSDZqY0ZnPt3S-101" target="RryZNQVFSDZqY0ZnPt3S-105">
          <mxGeometry relative="1" as="geometry" />
        </mxCell>
        <mxCell id="RryZNQVFSDZqY0ZnPt3S-101" value="解锁，将线程ID设为空" style="whiteSpace=wrap;html=1;" vertex="1" parent="2">
          <mxGeometry x="55.5" y="1050" width="120" height="60" as="geometry" />
        </mxCell>
        <mxCell id="RryZNQVFSDZqY0ZnPt3S-105" value="恢复线程" style="whiteSpace=wrap;html=1;" vertex="1" parent="2">
          <mxGeometry x="55" y="1170" width="120" height="60" as="geometry" />
        </mxCell>
        <mxCell id="4" value="Thread 3" style="swimlane;whiteSpace=wrap" parent="1" vertex="1">
          <mxGeometry x="690" y="90" width="280" height="1250" as="geometry" />
        </mxCell>
        <mxCell id="RryZNQVFSDZqY0ZnPt3S-70" value="" style="endArrow=none;dashed=1;html=1;rounded=0;" edge="1" parent="4">
          <mxGeometry width="50" height="50" relative="1" as="geometry">
            <mxPoint x="-560" y="432" as="sourcePoint" />
            <mxPoint x="280" y="432" as="targetPoint" />
          </mxGeometry>
        </mxCell>
        <mxCell id="RryZNQVFSDZqY0ZnPt3S-86" value="" style="edgeStyle=orthogonalEdgeStyle;rounded=0;orthogonalLoop=1;jettySize=auto;html=1;" edge="1" parent="4" source="RryZNQVFSDZqY0ZnPt3S-82" target="RryZNQVFSDZqY0ZnPt3S-85">
          <mxGeometry relative="1" as="geometry" />
        </mxCell>
        <mxCell id="RryZNQVFSDZqY0ZnPt3S-82" value="访问同步块" style="rounded=0;whiteSpace=wrap;html=1;" vertex="1" parent="4">
          <mxGeometry x="100" y="452" width="120" height="60" as="geometry" />
        </mxCell>
        <mxCell id="RryZNQVFSDZqY0ZnPt3S-93" value="" style="edgeStyle=orthogonalEdgeStyle;rounded=0;orthogonalLoop=1;jettySize=auto;html=1;startArrow=none;" edge="1" parent="4" source="RryZNQVFSDZqY0ZnPt3S-94" target="RryZNQVFSDZqY0ZnPt3S-92">
          <mxGeometry relative="1" as="geometry" />
        </mxCell>
        <mxCell id="RryZNQVFSDZqY0ZnPt3S-85" value="检查对象头中是否存储了线程2" style="rhombus;whiteSpace=wrap;html=1;rounded=0;" vertex="1" parent="4">
          <mxGeometry x="100" y="582" width="120" height="80" as="geometry" />
        </mxCell>
        <mxCell id="RryZNQVFSDZqY0ZnPt3S-81" value="" style="endArrow=none;dashed=1;html=1;rounded=0;" edge="1" parent="4">
          <mxGeometry width="50" height="50" relative="1" as="geometry">
            <mxPoint x="-560" y="864.5" as="sourcePoint" />
            <mxPoint x="280" y="860" as="targetPoint" />
          </mxGeometry>
        </mxCell>
        <mxCell id="RryZNQVFSDZqY0ZnPt3S-97" value="" style="edgeStyle=orthogonalEdgeStyle;rounded=0;orthogonalLoop=1;jettySize=auto;html=1;" edge="1" parent="4" source="RryZNQVFSDZqY0ZnPt3S-92" target="RryZNQVFSDZqY0ZnPt3S-96">
          <mxGeometry relative="1" as="geometry" />
        </mxCell>
        <mxCell id="RryZNQVFSDZqY0ZnPt3S-92" value="CAS替换Mark Word" style="rhombus;whiteSpace=wrap;html=1;rounded=0;" vertex="1" parent="4">
          <mxGeometry x="100" y="742" width="120" height="80" as="geometry" />
        </mxCell>
        <mxCell id="RryZNQVFSDZqY0ZnPt3S-94" value="没有" style="text;html=1;strokeColor=none;fillColor=none;align=center;verticalAlign=middle;whiteSpace=wrap;rounded=0;" vertex="1" parent="4">
          <mxGeometry x="130" y="680" width="60" height="30" as="geometry" />
        </mxCell>
        <mxCell id="RryZNQVFSDZqY0ZnPt3S-95" value="" style="edgeStyle=orthogonalEdgeStyle;rounded=0;orthogonalLoop=1;jettySize=auto;html=1;endArrow=none;" edge="1" parent="4" source="RryZNQVFSDZqY0ZnPt3S-85" target="RryZNQVFSDZqY0ZnPt3S-94">
          <mxGeometry relative="1" as="geometry">
            <mxPoint x="850" y="752" as="sourcePoint" />
            <mxPoint x="850" y="832" as="targetPoint" />
          </mxGeometry>
        </mxCell>
        <mxCell id="RryZNQVFSDZqY0ZnPt3S-96" value="撤销偏向锁" style="rounded=0;whiteSpace=wrap;html=1;" vertex="1" parent="4">
          <mxGeometry x="100" y="910" width="120" height="60" as="geometry" />
        </mxCell>
        <mxCell id="RryZNQVFSDZqY0ZnPt3S-41" value="偏向锁的获得和撤销流程" style="text;html=1;strokeColor=none;fillColor=none;align=center;verticalAlign=middle;whiteSpace=wrap;rounded=0;" vertex="1" parent="1">
          <mxGeometry x="130" y="60" width="155" height="30" as="geometry" />
        </mxCell>
        <mxCell id="RryZNQVFSDZqY0ZnPt3S-64" value="对象头中的Mark Word" style="swimlane;whiteSpace=wrap" vertex="1" parent="1">
          <mxGeometry x="410" y="90" width="280" height="1250" as="geometry" />
        </mxCell>
        <mxCell id="RryZNQVFSDZqY0ZnPt3S-73" value="T1|Epoch|&lt;br&gt;1|01" style="shape=parallelogram;perimeter=parallelogramPerimeter;whiteSpace=wrap;html=1;fixedSize=1;" vertex="1" parent="RryZNQVFSDZqY0ZnPt3S-64">
          <mxGeometry x="70" y="550" width="120" height="60" as="geometry" />
        </mxCell>
        <mxCell id="RryZNQVFSDZqY0ZnPt3S-103" value="空&lt;br&gt;0|01" style="rounded=0;whiteSpace=wrap;html=1;" vertex="1" parent="RryZNQVFSDZqY0ZnPt3S-64">
          <mxGeometry x="80" y="1050" width="120" height="60" as="geometry" />
        </mxCell>
        <mxCell id="RryZNQVFSDZqY0ZnPt3S-90" value="无锁状态" style="text;html=1;strokeColor=none;fillColor=none;align=center;verticalAlign=middle;whiteSpace=wrap;rounded=0;" vertex="1" parent="1">
          <mxGeometry x="20" y="280" width="60" height="30" as="geometry" />
        </mxCell>
        <mxCell id="RryZNQVFSDZqY0ZnPt3S-91" value="偏向锁状态" style="text;html=1;strokeColor=none;fillColor=none;align=center;verticalAlign=middle;whiteSpace=wrap;rounded=0;" vertex="1" parent="1">
          <mxGeometry x="30" y="610" width="70" height="30" as="geometry" />
        </mxCell>
        <mxCell id="RryZNQVFSDZqY0ZnPt3S-100" value="" style="endArrow=classic;html=1;rounded=0;exitX=-0.017;exitY=0.606;exitDx=0;exitDy=0;exitPerimeter=0;entryX=0.995;entryY=0.594;entryDx=0;entryDy=0;entryPerimeter=0;" edge="1" parent="1" source="RryZNQVFSDZqY0ZnPt3S-96" target="RryZNQVFSDZqY0ZnPt3S-98">
          <mxGeometry width="50" height="50" relative="1" as="geometry">
            <mxPoint x="650" y="1080" as="sourcePoint" />
            <mxPoint x="310" y="1036" as="targetPoint" />
          </mxGeometry>
        </mxCell>
        <mxCell id="RryZNQVFSDZqY0ZnPt3S-104" value="" style="endArrow=classic;html=1;rounded=0;exitX=1.038;exitY=0.483;exitDx=0;exitDy=0;exitPerimeter=0;entryX=-0.011;entryY=0.506;entryDx=0;entryDy=0;entryPerimeter=0;" edge="1" parent="1" source="RryZNQVFSDZqY0ZnPt3S-101" target="RryZNQVFSDZqY0ZnPt3S-103">
          <mxGeometry width="50" height="50" relative="1" as="geometry">
            <mxPoint x="510" y="1150" as="sourcePoint" />
            <mxPoint x="560" y="1100" as="targetPoint" />
          </mxGeometry>
        </mxCell>
        <mxCell id="RryZNQVFSDZqY0ZnPt3S-108" value="撤销偏向锁" style="text;html=1;strokeColor=none;fillColor=none;align=center;verticalAlign=middle;whiteSpace=wrap;rounded=0;" vertex="1" parent="1">
          <mxGeometry x="40" y="1110" width="70" height="30" as="geometry" />
        </mxCell>
        <mxCell id="RryZNQVFSDZqY0ZnPt3S-109" value="偏向锁的初始化流程" style="text;html=1;strokeColor=none;fillColor=none;align=center;verticalAlign=middle;whiteSpace=wrap;rounded=0;" vertex="1" parent="1">
          <mxGeometry x="510" y="60" width="120" height="30" as="geometry" />
        </mxCell>
      </root>
    </mxGraphModel>
  </diagram>
</mxfile>
